<svg width="111" height="115" viewBox="0 0 111 115" fill="none" xmlns="http://www.w3.org/2000/svg">
<path d="M55.4994 99.5151C44.4021 99.5151 35.4047 90.5178 35.4047 79.4191C35.4047 68.3204 44.4021 59.3231 55.4994 59.3231C66.5981 59.3231 75.5954 68.3204 75.5954 79.4191C75.5954 90.5178 66.5981 99.5151 55.4994 99.5151ZM72.1167 11.2138C69.1114 3.76578 61.4674 -0.855535 53.3101 0.132465C46.7127 0.932465 41.1807 5.51912 38.6941 11.6831L0.439413 106.456C-1.14325 110.379 1.74475 114.659 5.97408 114.659H25.2021H85.7981H105.026C109.255 114.659 112.143 110.379 110.561 106.456L72.1167 11.2138Z" fill="#3B82F6"/>
<path d="M102.033 8.31919C102.033 12.9125 98.3087 16.6379 93.7154 16.6379C89.1207 16.6379 85.3967 12.9125 85.3967 8.31919C85.3967 3.72453 89.1207 0.000509618 93.7154 0.000509618C98.3087 0.000509618 102.033 3.72453 102.033 8.31919Z" fill="#2563EB"/>
</svg>
